<svg viewBox="0 0 100 96" width="512" height="512" fill="none" xmlns="http://www.w3.org/2000/svg">
  <path d="M 0 0 C -10 -18, -34 -18, -34 -38 C -34 -58, -17 -66, 0 -50 C 17 -66, 34 -58, 34 -38 C 34 -18, 10 -18, 0 0 Z" fill="#fb7185" fill-opacity="0.45" transform="translate(50, 84) rotate(15)" />
  <path d="M 0 0 C -10 -18, -34 -18, -34 -38 C -34 -58, -17 -66, 0 -50 C 17 -66, 34 -58, 34 -38 C 34 -18, 10 -18, 0 0 Z" fill="#fb7185" fill-opacity="0.45" transform="translate(50, 84) rotate(-15)" />
</svg>
