<svg viewBox="0 0 24 24" fill="none" stroke="currentColor" stroke-width="1.5" stroke-linecap="round" stroke-linejoin="round" xmlns="http://www.w3.org/2000/svg">
  <!-- Left person: head -->
  <circle cx="8.5" cy="6.5" r="2.5"/>
  <!-- Left person: body arc -->
  <path d="M3 21v-1.5a4 4 0 0 1 4-4h1.5"/>

  <!-- Right person: head -->
  <circle cx="15.5" cy="6.5" r="2.5"/>
  <!-- Right person: body arc -->
  <path d="M21 21v-1.5a4 4 0 0 0-4-4h-1.5"/>

  <!-- Heart between the two people at center-bottom -->
  <path d="M12 21c0 0-3-2.2-3-4.2 0-1.2 1-2 2-1.6.4.2.7.5 1 .9.3-.4.6-.7 1-.9 1-.4 2 .4 2 1.6 0 2-3 4.2-3 4.2Z" fill="currentColor" stroke="none"/>
</svg>
