<?xml version="1.0" encoding="UTF-8"?>
<svg xmlns="http://www.w3.org/2000/svg" viewBox="0 0 24 24">
  <!-- Calendar + heart — matches Android ic_nav_anniversary silhouette -->
  <path fill="#000000" d="M19 4h-1V3c0-.55-.45-1-1-1s-1 .45-1 1v1H8V3c0-.55-.45-1-1-1s-1 .45-1 1v1H5c-1.11 0-1.99.9-1.99 2L3 20c0 1.1.89 2 2 2h8.05c-.03-.33-.05-.66-.05-1 0-.34.02-.67.05-1H5V10h14v2.08c.71.1 1.38.31 2 .62V6c0-1.1-.9-2-2-2zm0 4H5V7c0-.55.45-1 1-1h1v1c0 .55.45 1 1 1s1-.45 1-1V6h6v1c0 .55.45 1 1 1s1-.45 1-1V6h1c.55 0 1 .45 1 1v1z"/>
  <path fill="#000000" d="M16.5 13.5c-1.18 0-2.14.96-2.14 2.14 0 1.57 2.14 3.86 2.14 3.86s2.14-2.29 2.14-3.86c0-1.18-.96-2.14-2.14-2.14zm0 2.9c-.42 0-.76-.34-.76-.76s.34-.76.76-.76.76.34.76.76-.34.76-.76.76z"/>
  <path fill="#000000" d="M21.29 14.7a2.43 2.43 0 0 0-2.65-.52c-.3.12-.57.3-.8.53l-.34.34-.35-.34a2.43 2.43 0 0 0-2.65-.53c-.3.12-.56.3-.79.53-.95.94-1 2.53.2 3.74L17.5 22l3.6-3.55c1.2-1.21 1.14-2.8.19-3.74z"/>
</svg>
