<?xml version="1.0" encoding="UTF-8"?>
<svg xmlns="http://www.w3.org/2000/svg" viewBox="0 0 24 24">
  <!-- Two people + heart — matches Android ic_nav_us silhouette -->
  <path fill="#000000" d="M8.5 4a2.5 2.5 0 1 0 0 5 2.5 2.5 0 1 0 0-5zM15.5 4a2.5 2.5 0 1 0 0 5 2.5 2.5 0 1 0 0-5z"/>
  <path fill="#000000" d="M3 21v-1.5A4 4 0 0 1 7 15.5h1.5c.4 0 .78.08 1.13.22-.35.55-.58 1.18-.63 1.86H7A2.5 2.5 0 0 0 4.5 20V21H3zm18 0h-1.5v-1a2.5 2.5 0 0 0-2.5-2.5h-2c-.05-.68-.28-1.31-.63-1.86.35-.14.73-.22 1.13-.22H17a4 4 0 0 1 4 4V21z"/>
  <path fill="#000000" d="M12 21s-3-2.2-3-4.2c0-1.2 1-2 2-1.6.4.2.7.5 1 .9.3-.4.6-.7 1-.9 1-.4 2 .4 2 1.6 0 2-3 4.2-3 4.2z"/>
</svg>
